<svg width="98" height="97" viewBox="0 0 98 97" fill="none" xmlns="http://www.w3.org/2000/svg">
<g filter="url(#filter0_d_254_447)">
<path d="M8.20239 3.7832H89.9629V84.7881H8.20239V3.7832Z" fill="url(#paint0_radial_254_447)"/>
<path d="M8.20239 3.78375H89.9629V84.7886H8.20239V3.78375ZM4.48682 88.5724H93.6964V0H4.48682V88.5724ZM67.598 42.6945C69.4915 42.6945 70.1703 42.6945 70.349 42.6217C70.349 42.3488 70.4204 42.1669 70.4204 41.985C70.4204 39.9476 69.4558 36.1639 65.5973 36.1639C62.0246 36.1639 60.5063 39.3473 60.1311 42.7127H67.598V42.6945ZM60.0597 47.8789C60.1311 52.9906 62.507 56.4287 68.1696 56.4287C70.3668 56.4287 72.2603 56.1195 74.2253 55.2645C74.4933 55.1554 74.6719 55.1917 74.6719 55.5374V60.2671C74.6719 60.6491 74.5647 60.831 74.2968 61.0311C72.3318 62.0134 69.8667 62.4682 66.8299 62.4682C57.0229 62.4682 53.3431 55.0826 53.3431 46.8784C53.3431 37.9466 57.8804 30.6338 65.8653 30.6338C73.9752 30.6338 76.7976 37.5646 76.7976 43.2038C76.7976 45.0229 76.6905 46.4964 76.494 47.2241C76.4225 47.5333 76.3153 47.6424 76.0116 47.7152C75.2614 47.8244 73.0821 47.9881 69.8131 47.9881H60.0775V47.8789H60.0597ZM40.1242 44.0224C39.0881 39.8203 36.5515 30.6702 35.6226 26.2315H35.5512C34.7652 30.652 32.7288 38.1467 31.2104 44.0224H40.1242ZM29.692 50.1528L26.7624 61.4677C26.691 61.7769 26.5838 61.8861 26.2086 61.8861H20.7246C20.3495 61.8861 20.278 61.7769 20.3495 61.3221L30.9067 23.7394C31.0853 23.0663 31.2104 22.5206 31.2818 20.6287C31.2818 20.3558 31.389 20.2467 31.5855 20.2467H39.3918C39.6597 20.2467 39.7669 20.3194 39.8384 20.6287L51.646 61.3949C51.7175 61.7042 51.646 61.8861 51.3424 61.8861H45.2152C44.9116 61.8861 44.7329 61.7769 44.6615 61.5041L41.6068 50.1528H29.692Z" fill="#D8A1FF"/>
</g>
<defs>
<filter id="filter0_d_254_447" x="0.486816" y="0" width="97.2095" height="96.5723" filterUnits="userSpaceOnUse" color-interpolation-filters="sRGB">
<feFlood flood-opacity="0" result="BackgroundImageFix"/>
<feColorMatrix in="SourceAlpha" type="matrix" values="0 0 0 0 0 0 0 0 0 0 0 0 0 0 0 0 0 0 127 0" result="hardAlpha"/>
<feOffset dy="4"/>
<feGaussianBlur stdDeviation="2"/>
<feComposite in2="hardAlpha" operator="out"/>
<feColorMatrix type="matrix" values="0 0 0 0 0 0 0 0 0 0 0 0 0 0 0 0 0 0 0.25 0"/>
<feBlend mode="normal" in2="BackgroundImageFix" result="effect1_dropShadow_254_447"/>
<feBlend mode="normal" in="SourceGraphic" in2="effect1_dropShadow_254_447" result="shape"/>
</filter>
<radialGradient id="paint0_radial_254_447" cx="0" cy="0" r="1" gradientUnits="userSpaceOnUse" gradientTransform="translate(35.1549 21.9444) scale(62.1407 61.2673)">
<stop stop-color="#442F55" stop-opacity="0.98"/>
<stop offset="1" stop-color="#12002C"/>
</radialGradient>
</defs>
</svg>
