<svg width="49" height="48" viewBox="0 0 49 48" fill="none" xmlns="http://www.w3.org/2000/svg">
<g clip-path="url(#clip0_167_538)" filter="url(#filter0_d_167_538)">
<path d="M38.3201 0H9.96036C6.72049 0 4.08472 2.62848 4.08472 5.85938V34.1406C4.08472 37.3715 6.72049 40 9.96036 40H38.3201C41.56 40 44.1958 37.3715 44.1958 34.1406V5.85938C44.1958 2.62848 41.56 0 38.3201 0ZM41.8455 34.1406C41.8455 36.0791 40.264 37.6562 38.3201 37.6562H9.96036C8.0165 37.6562 6.43497 36.0791 6.43497 34.1406V5.85938C6.43497 3.9209 8.0165 2.34375 9.96036 2.34375H38.3201C40.264 2.34375 41.8455 3.9209 41.8455 5.85938V34.1406Z" fill="#070707" stroke="#070707" stroke-width="0.5"/>
<path d="M22.9651 16.4844C22.9651 13.8995 20.8566 11.7969 18.2646 11.7969H11.2139V28.2031H18.2646C20.8566 28.2031 22.9651 26.1005 22.9651 23.5156C22.9651 22.1167 22.3467 20.8597 21.3686 20C22.3467 19.1403 22.9651 17.8833 22.9651 16.4844ZM20.6149 23.5156C20.6149 24.808 19.5606 25.8594 18.2646 25.8594H13.5641V21.1719H18.2646C19.5606 21.1719 20.6149 22.2232 20.6149 23.5156ZM13.5641 18.8281V14.1406H18.2646C19.5606 14.1406 20.6149 15.192 20.6149 16.4844C20.6149 17.7768 19.5606 18.8281 18.2646 18.8281H13.5641Z" fill="#070707" stroke="#070707" stroke-width="0.5"/>
<path d="M31.1911 16.4844C27.9512 16.4844 25.3154 19.1129 25.3154 22.3438C25.3154 25.5746 27.9512 28.2031 31.1911 28.2031C33.2821 28.2031 35.2321 27.081 36.2799 25.2744L34.2455 24.1006C33.6163 25.1855 32.4458 25.8594 31.1911 25.8594C29.6588 25.8594 28.3521 24.8798 27.867 23.5156H37.0667V22.3438C37.0667 19.1129 34.4309 16.4844 31.1911 16.4844ZM27.867 21.1719C28.3521 19.8077 29.6588 18.8281 31.1911 18.8281C32.7233 18.8281 34.03 19.8077 34.5151 21.1719H27.867Z" fill="#070707" stroke="#070707" stroke-width="0.5"/>
<path d="M26.4905 11.7969H35.8915V14.1406H26.4905V11.7969Z" fill="#070707" stroke="#070707" stroke-width="0.5"/>
</g>
<defs>
<filter id="filter0_d_167_538" x="0.0847168" y="0" width="48.1111" height="48" filterUnits="userSpaceOnUse" color-interpolation-filters="sRGB">
<feFlood flood-opacity="0" result="BackgroundImageFix"/>
<feColorMatrix in="SourceAlpha" type="matrix" values="0 0 0 0 0 0 0 0 0 0 0 0 0 0 0 0 0 0 127 0" result="hardAlpha"/>
<feOffset dy="4"/>
<feGaussianBlur stdDeviation="2"/>
<feComposite in2="hardAlpha" operator="out"/>
<feColorMatrix type="matrix" values="0 0 0 0 0 0 0 0 0 0 0 0 0 0 0 0 0 0 0.25 0"/>
<feBlend mode="normal" in2="BackgroundImageFix" result="effect1_dropShadow_167_538"/>
<feBlend mode="normal" in="SourceGraphic" in2="effect1_dropShadow_167_538" result="shape"/>
</filter>
<clipPath id="clip0_167_538">
<rect width="40.111" height="40" fill="white" transform="translate(4.08472)"/>
</clipPath>
</defs>
</svg>
