<?xml version="1.0" encoding="UTF-8" standalone="no" ?>
<!DOCTYPE svg PUBLIC "-//W3C//DTD SVG 1.1//EN" "http://www.w3.org/Graphics/SVG/1.1/DTD/svg11.dtd">
<svg xmlns="http://www.w3.org/2000/svg" xmlns:xlink="http://www.w3.org/1999/xlink" version="1.1" width="400" height="400" viewBox="0 0 400 400" xml:space="preserve">
<desc>Created with Fabric.js 3.6.2</desc>
<defs>
</defs>
<g transform="matrix(4 0 0 4 199.82 200)" id="Cat_2_"  >
<path style="stroke: none; stroke-width: 1; stroke-dasharray: none; stroke-linecap: butt; stroke-dashoffset: 0; stroke-linejoin: miter; stroke-miterlimit: 4; fill: rgb(40,40,40); fill-rule: nonzero; opacity: 1;"  transform=" translate(-24.96, -25)" d="M 30.4 40 h -4 h -4 c 0 0 0 -2.4 0 -4 c -5.5 1.2 -7 -3 -7 -3 c -1 -2 -2 -3 -2 -3 c -2 -1.2 0 -1 0 -1 c 2 0 3 2 3 2 c 1.8 3 4.9 2.5 6 2 c 0 -1 0.4 -2.5 1 -3 c -4.4 -0.5 -8 -3 -8 -8 s 1 -6 2 -7 c -0.2 -0.5 -1 -2.3 0 -5 c 0 0 2 0 4 3 c 1 -1 4 -1 5 -1 c 1 0 4 0 5 1 c 2 -3 4 -3 4 -3 c 1.1 2.7 0.2 4.5 0 5 c 1 1 2 2 2 7 s -3.6 7.5 -8 8 c 0.6 0.5 1 2.2 1 3 L 30.4 40 L 30.4 40 z" stroke-linecap="round" />
</g>
<g transform="matrix(4 0 0 4 200 200)" id="Layer_1"  >
<path style="stroke: none; stroke-width: 1; stroke-dasharray: none; stroke-linecap: butt; stroke-dashoffset: 0; stroke-linejoin: miter; stroke-miterlimit: 4; fill: rgb(40,40,40); fill-rule: nonzero; opacity: 1;"  transform=" translate(-25, -25)" d="M 25 1 C 11.7 1 1 11.7 1 25 s 10.7 24 24 24 s 24 -10.7 24 -24 S 38.3 1 25 1 z M 25 44 C 14.5 44 6 35.5 6 25 S 14.5 6 25 6 s 19 8.5 19 19 S 35.5 44 25 44 z" stroke-linecap="round" />
</g>
</svg>