<svg width="170" height="31" viewBox="0 0 170 31" fill="none" xmlns="http://www.w3.org/2000/svg">
<g filter="url(#filter0_d_179_247)">
<path d="M14.0853 3.18966C14.3851 2.26938 15.687 2.26938 15.9869 3.18966L17.738 8.56406C17.8721 8.97568 18.2559 9.25426 18.6888 9.25426H24.3495C25.3189 9.25426 25.7213 10.4953 24.9363 11.0641L20.3614 14.3787C20.0099 14.6333 19.8629 15.0856 19.9973 15.4983L21.7459 20.8649C22.0459 21.7858 20.9926 22.5527 20.2084 21.9845L15.6228 18.6621C15.2728 18.4085 14.7994 18.4085 14.4494 18.6621L9.86382 21.9845C9.07956 22.5527 8.02627 21.7858 8.3263 20.8649L10.0749 15.4983C10.2093 15.0856 10.0622 14.6333 9.71078 14.3787L5.13591 11.0641C4.3509 10.4953 4.75323 9.25426 5.72263 9.25426H11.3834C11.8163 9.25426 12.2001 8.97568 12.3342 8.56406L14.0853 3.18966Z" fill="black"/>
<path d="M49.1825 3.18966C49.4823 2.26938 50.7842 2.26938 51.0841 3.18966L52.8352 8.56406C52.9693 8.97568 53.353 9.25426 53.786 9.25426H59.4467C60.4161 9.25426 60.8184 10.4953 60.0334 11.0641L55.4586 14.3787C55.1071 14.6333 54.96 15.0856 55.0945 15.4983L56.843 20.8649C57.1431 21.7858 56.0898 22.5527 55.3055 21.9845L50.72 18.6621C50.3699 18.4085 49.8966 18.4085 49.5465 18.6621L44.961 21.9845C44.1767 22.5527 43.1234 21.7858 43.4235 20.8649L45.172 15.4983C45.3065 15.0856 45.1594 14.6333 44.808 14.3787L40.2331 11.0641C39.4481 10.4953 39.8504 9.25426 40.8198 9.25426H46.4806C46.9135 9.25426 47.2972 8.97568 47.4314 8.56406L49.1825 3.18966Z" fill="black"/>
<path d="M84.2796 3.18966C84.5795 2.26938 85.8814 2.26938 86.1812 3.18966L87.9323 8.56406C88.0664 8.97568 88.4502 9.25426 88.8831 9.25426H94.5439C95.5133 9.25426 95.9156 10.4953 95.1306 11.0641L90.5557 14.3787C90.2043 14.6333 90.0572 15.0856 90.1916 15.4983L91.9402 20.8649C92.2402 21.7858 91.1869 22.5527 90.4027 21.9845L85.8171 18.6621C85.4671 18.4085 84.9937 18.4085 84.6437 18.6621L80.0582 21.9845C79.2739 22.5527 78.2206 21.7858 78.5206 20.8649L80.2692 15.4983C80.4037 15.0856 80.2566 14.6333 79.9051 14.3787L75.3302 11.0641C74.5452 10.4953 74.9476 9.25426 75.917 9.25426H81.5777C82.0106 9.25426 82.3944 8.97568 82.5285 8.56406L84.2796 3.18966Z" fill="black"/>
<path d="M119.377 3.18966C119.677 2.26938 120.979 2.26938 121.278 3.18966L123.029 8.56406C123.164 8.97568 123.547 9.25426 123.98 9.25426H129.641C130.61 9.25426 131.013 10.4953 130.228 11.0641L125.653 14.3787C125.301 14.6333 125.154 15.0856 125.289 15.4983L127.037 20.8649C127.337 21.7858 126.284 22.5527 125.5 21.9845L120.914 18.6621C120.564 18.4085 120.091 18.4085 119.741 18.6621L115.155 21.9845C114.371 22.5527 113.318 21.7858 113.618 20.8649L115.366 15.4983C115.501 15.0856 115.354 14.6333 115.002 14.3787L110.427 11.0641C109.642 10.4953 110.045 9.25426 111.014 9.25426H116.675C117.108 9.25426 117.492 8.97568 117.626 8.56406L119.377 3.18966Z" fill="#E5E5E5"/>
<path d="M154.474 3.18966C154.774 2.26938 156.076 2.26938 156.376 3.18966L158.127 8.56406C158.261 8.97568 158.645 9.25426 159.077 9.25426H164.738C165.708 9.25426 166.11 10.4953 165.325 11.0641L160.75 14.3787C160.399 14.6333 160.252 15.0856 160.386 15.4983L162.135 20.8649C162.435 21.7858 161.381 22.5527 160.597 21.9845L156.011 18.6621C155.661 18.4085 155.188 18.4085 154.838 18.6621L150.252 21.9845C149.468 22.5527 148.415 21.7858 148.715 20.8649L150.464 15.4983C150.598 15.0856 150.451 14.6333 150.099 14.3787L145.525 11.0641C144.74 10.4953 145.142 9.25426 146.111 9.25426H151.772C152.205 9.25426 152.589 8.97568 152.723 8.56406L154.474 3.18966Z" fill="#E5E5E5"/>
</g>
<defs>
<filter id="filter0_d_179_247" x="0.720703" y="2.5" width="169.02" height="27.6797" filterUnits="userSpaceOnUse" color-interpolation-filters="sRGB">
<feFlood flood-opacity="0" result="BackgroundImageFix"/>
<feColorMatrix in="SourceAlpha" type="matrix" values="0 0 0 0 0 0 0 0 0 0 0 0 0 0 0 0 0 0 127 0" result="hardAlpha"/>
<feOffset dy="4"/>
<feGaussianBlur stdDeviation="2"/>
<feComposite in2="hardAlpha" operator="out"/>
<feColorMatrix type="matrix" values="0 0 0 0 0 0 0 0 0 0 0 0 0 0 0 0 0 0 0.25 0"/>
<feBlend mode="normal" in2="BackgroundImageFix" result="effect1_dropShadow_179_247"/>
<feBlend mode="normal" in="SourceGraphic" in2="effect1_dropShadow_179_247" result="shape"/>
</filter>
</defs>
</svg>
