<?xml version="1.0" encoding="UTF-8" standalone="no" ?>
<!DOCTYPE svg PUBLIC "-//W3C//DTD SVG 1.1//EN" "http://www.w3.org/Graphics/SVG/1.1/DTD/svg11.dtd">
<svg xmlns="http://www.w3.org/2000/svg" xmlns:xlink="http://www.w3.org/1999/xlink" version="1.1" width="400" height="400" viewBox="0 0 400 400" xml:space="preserve">
<desc>Created with Fabric.js 3.6.2</desc>
<defs>
</defs>
<g transform="matrix(0.39 0 0 0.39 200 200)"  >
<path style="stroke: none; stroke-width: 1; stroke-dasharray: none; stroke-linecap: butt; stroke-dashoffset: 0; stroke-linejoin: round; stroke-miterlimit: 2; fill: rgb(0,0,0); fill-rule: evenodd; opacity: 1;"  transform=" translate(-256, -256)" d="M 256 0 c 141.29 0 256 114.71 256 256 c 0 141.29 -114.71 256 -256 256 c -141.29 0 -256 -114.71 -256 -256 c 0 -141.29 114.71 -256 256 -256 Z m 0 96 c -43.453 0 -48.902 0.184 -65.968 0.963 c -17.03 0.777 -28.661 3.482 -38.839 7.437 c -10.521 4.089 -19.444 9.56 -28.339 18.455 c -8.895 8.895 -14.366 17.818 -18.455 28.339 c -3.955 10.177 -6.659 21.808 -7.437 38.838 c -0.778 17.066 -0.962 22.515 -0.962 65.968 c 0 43.453 0.184 48.902 0.962 65.968 c 0.778 17.03 3.482 28.661 7.437 38.838 c 4.089 10.521 9.56 19.444 18.455 28.34 c 8.895 8.895 17.818 14.366 28.339 18.455 c 10.178 3.954 21.809 6.659 38.839 7.436 c 17.066 0.779 22.515 0.963 65.968 0.963 c 43.453 0 48.902 -0.184 65.968 -0.963 c 17.03 -0.777 28.661 -3.482 38.838 -7.436 c 10.521 -4.089 19.444 -9.56 28.34 -18.455 c 8.895 -8.896 14.366 -17.819 18.455 -28.34 c 3.954 -10.177 6.659 -21.808 7.436 -38.838 c 0.779 -17.066 0.963 -22.515 0.963 -65.968 c 0 -43.453 -0.184 -48.902 -0.963 -65.968 c -0.777 -17.03 -3.482 -28.661 -7.436 -38.838 c -4.089 -10.521 -9.56 -19.444 -18.455 -28.339 c -8.896 -8.895 -17.819 -14.366 -28.34 -18.455 c -10.177 -3.955 -21.808 -6.66 -38.838 -7.437 c -17.066 -0.779 -22.515 -0.963 -65.968 -0.963 Z m 0 28.829 c 42.722 0 47.782 0.163 64.654 0.933 c 15.6 0.712 24.071 3.318 29.709 5.509 c 7.469 2.902 12.799 6.37 18.397 11.969 c 5.6 5.598 9.067 10.929 11.969 18.397 c 2.191 5.638 4.798 14.109 5.509 29.709 c 0.77 16.872 0.933 21.932 0.933 64.654 c 0 42.722 -0.163 47.782 -0.933 64.654 c -0.711 15.6 -3.318 24.071 -5.509 29.709 c -2.902 7.469 -6.369 12.799 -11.969 18.397 c -5.598 5.6 -10.928 9.067 -18.397 11.969 c -5.638 2.191 -14.109 4.798 -29.709 5.509 c -16.869 0.77 -21.929 0.933 -64.654 0.933 c -42.725 0 -47.784 -0.163 -64.654 -0.933 c -15.6 -0.711 -24.071 -3.318 -29.709 -5.509 c -7.469 -2.902 -12.799 -6.369 -18.398 -11.969 c -5.599 -5.598 -9.066 -10.928 -11.968 -18.397 c -2.191 -5.638 -4.798 -14.109 -5.51 -29.709 c -0.77 -16.872 -0.932 -21.932 -0.932 -64.654 c 0 -42.722 0.162 -47.782 0.932 -64.654 c 0.712 -15.6 3.319 -24.071 5.51 -29.709 c 2.902 -7.468 6.369 -12.799 11.968 -18.397 c 5.599 -5.599 10.929 -9.067 18.398 -11.969 c 5.638 -2.191 14.109 -4.797 29.709 -5.509 c 16.872 -0.77 21.932 -0.933 64.654 -0.933 Z m 0 49.009 c -45.377 0 -82.162 36.785 -82.162 82.162 c 0 45.377 36.785 82.162 82.162 82.162 c 45.377 0 82.162 -36.785 82.162 -82.162 c 0 -45.377 -36.785 -82.162 -82.162 -82.162 Z m 0 135.495 c -29.455 0 -53.333 -23.878 -53.333 -53.333 c 0 -29.455 23.878 -53.333 53.333 -53.333 c 29.455 0 53.333 23.878 53.333 53.333 c 0 29.455 -23.878 53.333 -53.333 53.333 Z m 104.609 -138.741 c 0 10.604 -8.597 19.199 -19.201 19.199 c -10.603 0 -19.199 -8.595 -19.199 -19.199 c 0 -10.604 8.596 -19.2 19.199 -19.2 c 10.604 0 19.201 8.596 19.201 19.2 Z" stroke-linecap="round" />
</g>
</svg>