<?xml version="1.0" encoding="UTF-8" standalone="no" ?>
<!DOCTYPE svg PUBLIC "-//W3C//DTD SVG 1.1//EN" "http://www.w3.org/Graphics/SVG/1.1/DTD/svg11.dtd">
<svg xmlns="http://www.w3.org/2000/svg" xmlns:xlink="http://www.w3.org/1999/xlink" version="1.1" width="400" height="400" viewBox="0 0 400 400" xml:space="preserve">
<desc>Created with Fabric.js 3.6.2</desc>
<defs>
</defs>
<g transform="matrix(1.56 0 0 1.56 200 200)" id="Layer_1"  >
<circle style="stroke: rgb(0,0,0); stroke-width: 8; stroke-dasharray: none; stroke-linecap: butt; stroke-dashoffset: 0; stroke-linejoin: miter; stroke-miterlimit: 10; fill: none; fill-rule: nonzero; opacity: 1;"  cx="0" cy="0" r="60" />
</g>
<g transform="matrix(1.56 0 0 1.56 200 200)" id="Layer_1"  >
<path style="stroke: none; stroke-width: 1; stroke-dasharray: none; stroke-linecap: butt; stroke-dashoffset: 0; stroke-linejoin: miter; stroke-miterlimit: 4; fill: rgb(0,0,0); fill-rule: nonzero; opacity: 1;"  transform=" translate(-64, -64)" d="M 92 32 H 36 a 4 4 0 0 0 -4 4 V 92 a 4 4 0 0 0 4 4 H 92 a 4 4 0 0 0 4 -4 V 36 A 4 4 0 0 0 92 32 Z M 52 86 H 42 V 56 H 52 Z M 47 52 a 6 6 0 1 1 6 -6 A 6 6 0 0 1 47 52 Z M 86 86 H 76 V 66 c 0 -1.66 -2.24 -3 -5 -3 c -4 0 -5 5.34 -5 7 V 86 H 56 V 56 H 66 v 7 c 0 -5 4.48 -7 10 -7 A 10 10 0 0 1 86 66 Z" stroke-linecap="round" />
</g>
</svg>