<?xml version="1.0" encoding="UTF-8" standalone="no"?>
<svg
   version="1.1"
   width="400"
   height="400"
   viewBox="0 0 400 400"
   xml:space="preserve"
   id="svg13"
   sodipodi:docname="f8084fd92b0f2d4f8322e7d55f3e3c84.svg"
   xmlns:inkscape="http://www.inkscape.org/namespaces/inkscape"
   xmlns:sodipodi="http://sodipodi.sourceforge.net/DTD/sodipodi-0.dtd"
   xmlns="http://www.w3.org/2000/svg"
   xmlns:svg="http://www.w3.org/2000/svg"><sodipodi:namedview
   id="namedview15"
   pagecolor="#ffffff"
   bordercolor="#666666"
   borderopacity="1.0"
   inkscape:pageshadow="2"
   inkscape:pageopacity="0.0"
   inkscape:pagecheckerboard="0" />
<desc
   id="desc2">Created with Fabric.js 3.6.2</desc>
<defs
   id="defs4">
</defs>
<g
   transform="matrix(1.56 0 0 1.56 200 200)"
   id="Layer_1">
<circle
   style="stroke: rgb(0,0,0); stroke-width: 8; stroke-dasharray: none; stroke-linecap: butt; stroke-dashoffset: 0; stroke-linejoin: miter; stroke-miterlimit: 10; fill: none; fill-rule: nonzero; opacity: 1;"
   cx="0"
   cy="0"
   r="60"
   id="circle6" />
</g>
<g
   transform="matrix(1.56 0 0 1.56 200 200)"
   id="g11">
<path
   style="stroke: none; stroke-width: 1; stroke-dasharray: none; stroke-linecap: butt; stroke-dashoffset: 0; stroke-linejoin: miter; stroke-miterlimit: 4; fill: rgb(0,0,0); fill-rule: nonzero; opacity: 1;"
   transform=" translate(-64, -64)"
   d="M 92 32 H 36 a 4 4 0 0 0 -4 4 V 92 a 4 4 0 0 0 4 4 H 92 a 4 4 0 0 0 4 -4 V 36 A 4 4 0 0 0 92 32 Z M 52 86 H 42 V 56 H 52 Z M 47 52 a 6 6 0 1 1 6 -6 A 6 6 0 0 1 47 52 Z M 86 86 H 76 V 66 c 0 -1.66 -2.24 -3 -5 -3 c -4 0 -5 5.34 -5 7 V 86 H 56 V 56 H 66 v 7 c 0 -5 4.48 -7 10 -7 A 10 10 0 0 1 86 66 Z"
   stroke-linecap="round"
   id="path9" />
</g>
</svg>
