<svg width="98" height="97" viewBox="0 0 98 97" fill="none" xmlns="http://www.w3.org/2000/svg">
<g filter="url(#filter0_d_254_449)">
<path d="M7.71291 3.7793H89.3783V84.6339H7.71291V3.7793Z" fill="url(#paint0_radial_254_449)"/>
<path d="M7.71287 3.77927H89.3782V84.6338H7.71287V3.77927ZM4 88.4131H93.0733V0H4V88.4131ZM64.0664 36.2846C61.139 36.2846 60.1394 37.7927 60.1394 39.0464C60.1394 40.4091 60.7998 41.3539 64.7447 43.4253C70.564 46.296 72.3847 49.0578 72.3847 53.0915C72.3847 59.1419 67.8507 62.3943 61.728 62.3943C58.4971 62.3943 55.7125 61.722 54.1238 60.7772C53.856 60.6682 53.8203 60.4683 53.8203 60.1776V54.5995C53.8203 54.218 53.9988 54.109 54.2666 54.2906C56.605 55.8351 59.2825 56.5255 61.728 56.5255C64.6555 56.5255 65.8872 55.2718 65.8872 53.582C65.8872 52.2193 65.0304 51.0201 61.2818 49.0396C56.0159 46.4777 53.8203 43.8795 53.8203 39.5188C53.8203 34.6494 57.5689 30.5975 64.0664 30.5975C67.2617 30.5975 69.493 31.0881 70.7068 31.6514C71.0102 31.8331 71.0816 32.142 71.0816 32.4145V37.5928C71.0816 37.9017 70.9031 38.0834 70.5283 37.9744C68.886 36.9205 66.4762 36.2846 64.0664 36.2846ZM32.15 40.7725C33.0068 40.8452 33.6673 40.8452 35.1489 40.8452C39.4865 40.8452 43.5742 39.3008 43.5742 33.2866C43.5742 28.4899 40.6468 26.0733 35.7022 26.0733C34.2206 26.0733 32.8105 26.146 32.1322 26.1823L32.15 40.7725ZM25.5275 20.7133C25.5275 20.4408 26.0452 20.2591 26.3486 20.2591C28.7227 20.15 32.2571 20.0774 35.9164 20.0774C46.1982 20.0774 50.2146 25.8189 50.2146 33.1413C50.2146 42.7348 43.3779 46.8593 34.9882 46.8593C33.578 46.8593 33.0961 46.7866 32.0965 46.7866V61.2859C32.0965 61.5948 31.9894 61.7402 31.6502 61.7402H25.9738C25.6703 61.7402 25.5275 61.6311 25.5275 61.2859V20.7133Z" fill="#31C5F0"/>
</g>
<defs>
<filter id="filter0_d_254_449" x="0" y="0" width="97.0733" height="96.4141" filterUnits="userSpaceOnUse" color-interpolation-filters="sRGB">
<feFlood flood-opacity="0" result="BackgroundImageFix"/>
<feColorMatrix in="SourceAlpha" type="matrix" values="0 0 0 0 0 0 0 0 0 0 0 0 0 0 0 0 0 0 127 0" result="hardAlpha"/>
<feOffset dy="4"/>
<feGaussianBlur stdDeviation="2"/>
<feComposite in2="hardAlpha" operator="out"/>
<feColorMatrix type="matrix" values="0 0 0 0 0 0 0 0 0 0 0 0 0 0 0 0 0 0 0.25 0"/>
<feBlend mode="normal" in2="BackgroundImageFix" result="effect1_dropShadow_254_449"/>
<feBlend mode="normal" in="SourceGraphic" in2="effect1_dropShadow_254_449" result="shape"/>
</filter>
<radialGradient id="paint0_radial_254_449" cx="0" cy="0" r="1" gradientUnits="userSpaceOnUse" gradientTransform="translate(34.6173 21.9191) scale(62.0565 61.1565)">
<stop stop-color="#34364E" stop-opacity="0.98"/>
<stop offset="1" stop-color="#0C0824"/>
</radialGradient>
</defs>
</svg>
